<svg width="24" height="24" viewBox="0 0 24 24" fill="none" xmlns="http://www.w3.org/2000/svg">
<path d="M11.5203 13.7912L8.369 10.6402C8.32567 10.5967 8.2915 10.5481 8.2665 10.4944C8.2415 10.4409 8.229 10.3835 8.229 10.3222C8.229 10.1997 8.27042 10.0932 8.35325 10.0027C8.43609 9.91235 8.54525 9.86719 8.68075 9.86719H15.3193C15.4548 9.86719 15.5639 9.91285 15.6468 10.0042C15.7296 10.0954 15.771 10.2018 15.771 10.3234C15.771 10.3539 15.7243 10.4595 15.6308 10.6402L12.4798 13.7912C12.4074 13.8637 12.3326 13.9166 12.2553 13.9499C12.1779 13.9833 12.0928 13.9999 12 13.9999C11.9072 13.9999 11.8221 13.9833 11.7448 13.9499C11.6674 13.9166 11.5926 13.8637 11.5203 13.7912Z" fill="current"/>
</svg>
